<?xml version="1.0" encoding="UTF-8"?> <svg xmlns="http://www.w3.org/2000/svg" width="127" height="37" viewBox="0 0 127 37" fill="none"><g clip-path="url(#clip0_3801_2)"><path d="M62.2974 17.3229H48.3181C45.6483 17.3229 43.4851 15.1345 43.4851 12.4319V5.55104C43.4851 2.84845 45.6483 0.660004 48.3181 0.660004H62.2974V4.28237H47.0657V7.18027H62.2974V10.8026H47.0657V13.7005H62.2974V17.3229Z" fill="#FF1637"></path><path d="M83.7349 17.3229H69.7556C67.0858 17.3229 64.9226 15.1345 64.9226 12.4319V5.55104C64.9226 2.84845 67.0858 0.660004 69.7556 0.660004H83.7349V4.28237H68.5032V7.18027H83.7349V10.8026H68.5032V13.7005H83.7349V17.3229Z" fill="#FF1637"></path><path d="M36.0251 0.659994H22.0475V17.3229H25.6281V12.2616H36.0251C36.4591 12.2616 36.8782 12.1982 37.2792 12.0897C39.3401 11.5304 40.8598 9.63412 40.8598 7.37056V5.54936C40.8598 2.84844 38.6966 0.658325 36.0251 0.658325V0.659994ZM37.2792 5.80476V8.63922H25.6281V4.28236H37.2792V5.80476Z" fill="#FF1637"></path><path d="M100.303 0.660004H86.3618V17.3229H100.303C102.973 17.3229 105.136 15.1345 105.136 12.4319V5.55104C105.136 2.84845 102.973 0.660004 100.303 0.660004ZM101.556 7.18027V13.7005H89.9408V4.28237H101.556V7.18027Z" fill="#FF1637"></path><path d="M19.381 11.7641C19.381 11.0146 19.2358 10.3753 18.9471 9.8478C18.6583 9.3203 18.2442 8.89296 17.7029 8.56745C17.1601 8.24027 16.4901 7.98654 15.6932 7.80625L4.85065 6.63942C4.72689 6.59768 4.61799 6.53926 4.52064 6.46247C4.42493 6.38735 4.34738 6.29387 4.29293 6.18203C4.26488 6.1403 4.24673 6.09856 4.23188 6.05683C4.21867 6.0151 4.21042 5.96001 4.21042 5.8899L4.23188 4.97346C4.23188 4.7648 4.29293 4.59787 4.41503 4.47434C4.53714 4.35081 4.69719 4.28571 4.89025 4.28571L15.2163 4.29239H15.7988L15.7955 5.80811H19.3777V4.61957C19.3777 4.50773 19.3728 4.40089 19.3645 4.29239C19.315 3.71982 19.1401 3.17563 18.8316 2.66149C18.4686 2.05053 17.9917 1.56476 17.401 1.20419C16.8136 0.841957 16.175 0.660004 15.4886 0.660004H4.35728C3.68406 0.660004 3.05538 0.836949 2.47456 1.19251C1.89044 1.54473 1.43173 2.01714 1.09347 2.60807C0.758505 3.199 0.5968 3.835 0.61 4.5144L0.629801 5.9717C0.643001 6.83305 0.821207 7.55252 1.16442 8.12676C1.50763 8.70433 1.9581 9.15504 2.51582 9.48222C3.07024 9.80774 3.72696 10.0398 4.48103 10.18L15.18 11.3251C15.3714 11.3535 15.5232 11.4303 15.6321 11.5555C15.7427 11.6807 15.7971 11.8393 15.7971 12.0329V13.0128C15.7971 13.2214 15.7394 13.3884 15.6222 13.5119C15.5067 13.6371 15.345 13.6972 15.1388 13.6972H4.23188V12.507C4.23188 12.3951 4.22693 12.2883 4.21867 12.1798H0.651252L0.647952 13.6955C0.694153 14.2698 0.864109 14.8139 1.15617 15.3197C1.50433 15.9307 1.98285 16.4165 2.58677 16.777C3.19069 17.1376 3.84081 17.3179 4.54209 17.3179H15.6948C16.3532 17.3179 16.972 17.1576 17.5478 16.8305C18.1237 16.5049 18.5824 16.0492 18.9174 15.4666C19.2556 14.8841 19.4223 14.223 19.4223 13.4869L19.381 11.7591V11.7641Z" fill="#FF1637"></path><path d="M80.1542 23.6195H68.5032V33.0377H80.1542V23.6195ZM83.7348 31.7707C83.7348 34.4733 81.5716 36.6617 78.9002 36.6617H69.7556C67.0841 36.6617 64.9209 34.4733 64.9209 31.7707V24.8882C64.9209 22.1856 67.0841 19.9971 69.7556 19.9971H78.9002C81.5716 19.9971 83.7348 22.1856 83.7348 24.8882V31.7707Z" fill="#FF1637"></path><path d="M105.172 36.66H101.592V23.6195H89.9407V36.66H86.3601V19.9971H100.338C103.009 19.9971 105.172 22.1856 105.172 24.8882V36.6617V36.66Z" fill="#FF1637"></path><path d="M126.61 36.66H112.631C109.961 36.66 107.798 34.4716 107.798 31.769V24.8865C107.798 22.1839 109.961 19.9955 112.631 19.9955H126.61V23.6178H111.378V26.5157H126.61V30.1381H111.378V33.036H126.61V36.6583V36.66Z" fill="#FF1637"></path><path d="M60.1292 27.6441L45.0642 33.0293H62.2974V36.65H46.5063C44.4025 36.65 42.7112 34.9156 42.7112 32.7588C42.7112 30.9193 43.9916 29.4403 45.6532 29.0029L60.7331 23.6178H43.4851V19.9971H59.2761C61.3799 19.9971 63.0712 21.7315 63.0712 23.8882C63.0712 25.7278 61.7908 27.2068 60.1292 27.6441Z" fill="#FF1637"></path></g><defs><clipPath id="clip0_3801_2"><rect width="126" height="36" fill="white" transform="translate(0.609985 0.660004)"></rect></clipPath></defs></svg> 